<svg width="374" height="264" viewBox="0 0 374 264" fill="none" xmlns="http://www.w3.org/2000/svg">
<path d="M363.925 177.112C363.945 178.715 363.647 180.306 363.048 181.792C362.448 183.279 361.56 184.631 360.434 185.772C359.307 186.912 357.966 187.817 356.487 188.435C355.008 189.053 353.421 189.37 351.818 189.37H265.35C266.606 191.667 267.085 194.309 266.714 196.9C266.342 199.492 265.142 201.893 263.291 203.745C262.585 204.448 261.797 205.064 260.944 205.58H276.917C283.598 205.58 289.254 210.854 289.34 217.528C289.359 219.131 289.06 220.721 288.461 222.208C287.861 223.694 286.973 225.047 285.847 226.187C284.721 227.328 283.38 228.234 281.901 228.852C280.422 229.471 278.836 229.79 277.233 229.791H197.833C195.183 229.79 192.607 228.92 190.498 227.315C188.39 225.709 186.867 223.457 186.163 220.902C185.458 218.348 185.611 215.633 186.597 213.174C187.584 210.714 189.35 208.647 191.625 207.287H144.06C137.379 207.287 131.724 202.013 131.638 195.339C131.61 193.178 132.161 191.049 133.234 189.172C134.308 187.296 135.863 185.742 137.74 184.67C135.774 183.649 134.125 182.108 132.975 180.215C131.825 178.321 131.217 176.148 131.217 173.932V159.106C131.215 157.213 131.658 155.346 132.51 153.655C133.362 151.965 134.6 150.498 136.123 149.373H50.6468C43.9718 149.373 38.3235 144.112 38.2244 137.444C38.2006 135.839 38.4963 134.246 39.0942 132.756C39.6922 131.266 40.5805 129.91 41.7074 128.767C42.8343 127.624 44.1773 126.717 45.6582 126.098C47.1392 125.479 48.7285 125.16 50.3336 125.161H56.3747C58.8552 125.161 61.2341 124.176 62.988 122.422C64.742 120.668 65.7273 118.289 65.7273 115.808V115.802C65.7273 113.321 64.742 110.942 62.988 109.188C61.2341 107.434 58.8552 106.449 56.3747 106.449H16.1619C12.9519 106.449 9.87339 105.174 7.60358 102.904C5.33376 100.634 4.05859 97.5556 4.05859 94.3456C4.05859 91.1356 5.33376 88.0571 7.60358 85.7872C9.87339 83.5174 12.9519 82.2423 16.1619 82.2423H74.304C77.5141 82.2431 80.5929 80.9687 82.8633 78.6995C85.1337 76.4303 86.4097 73.3521 86.4105 70.142C86.4113 66.932 85.1369 63.8532 82.8677 61.5828C80.5985 59.3124 77.5203 58.0364 74.3103 58.0356H57.7035C51.0153 58.0356 45.3601 52.7483 45.2881 46.0608C45.2706 44.4601 45.5709 42.8719 46.1715 41.3881C46.7722 39.9043 47.6611 38.5544 48.787 37.4165C49.9129 36.2786 51.2534 35.3754 52.7307 34.7591C54.2081 34.1428 55.7931 33.8257 57.3938 33.8262H167.824C174.328 33.8262 179.911 38.8309 180.225 45.3341C180.331 47.4797 179.866 49.6152 178.877 51.522H321.299C324.509 51.522 327.588 52.7972 329.857 55.067C332.127 57.3368 333.402 60.4154 333.402 63.6254C333.402 66.8354 332.127 69.9139 329.857 72.1837C327.588 74.4535 324.509 75.7287 321.299 75.7287H268.546C268.543 78.3331 267.508 80.8303 265.666 82.6722C263.825 84.5142 261.328 85.5505 258.724 85.5538H199.26C201.022 87.2174 202.244 89.3719 202.768 91.738C203.291 94.1041 203.092 96.573 202.196 98.8247C201.301 101.076 199.749 103.007 197.744 104.367C195.738 105.727 193.37 106.454 190.946 106.452H174.32C173.665 106.451 173.017 106.579 172.412 106.829C171.807 107.079 171.257 107.445 170.794 107.908C170.33 108.37 169.963 108.919 169.712 109.524C169.461 110.128 169.332 110.776 169.332 111.431V111.438C169.332 112.092 169.461 112.74 169.712 113.345C169.963 113.949 170.33 114.498 170.794 114.961C171.257 115.423 171.807 115.79 172.412 116.039C173.017 116.289 173.665 116.417 174.32 116.416H309.284C312.494 116.416 315.573 117.691 317.842 119.961C320.112 122.231 321.387 125.309 321.387 128.519C321.387 131.729 320.112 134.808 317.842 137.078C315.573 139.348 312.494 140.623 309.284 140.623H274.381C276.151 141.706 277.613 143.225 278.628 145.035C279.642 146.845 280.175 148.885 280.175 150.96V154.413C280.176 156.633 279.565 158.812 278.41 160.708C277.254 162.605 275.599 164.147 273.625 165.165H351.503C358.184 165.165 363.839 170.439 363.925 177.113" fill="#FEEFEC"/>
<path d="M339.723 103.275V118.181" stroke="#F95D44" stroke-width="1.38557" stroke-miterlimit="10" stroke-linecap="round"/>
<path d="M332.27 110.728H347.176" stroke="#F95D44" stroke-width="1.38557" stroke-miterlimit="10" stroke-linecap="round"/>
<path d="M97.6641 5.03809V18.2038" stroke="#F95D44" stroke-width="1.38557" stroke-miterlimit="10" stroke-linecap="round"/>
<path d="M91.0801 11.6206H104.246" stroke="#F95D44" stroke-width="1.38557" stroke-miterlimit="10" stroke-linecap="round"/>
<path d="M357.242 25.9915C357.242 27.724 356.728 29.4176 355.766 30.8582C354.803 32.2987 353.435 33.4214 351.834 34.0844C350.234 34.7474 348.472 34.9208 346.773 34.5828C345.074 34.2447 343.513 33.4104 342.288 32.1853C341.063 30.9601 340.229 29.3993 339.891 27.7C339.553 26.0008 339.727 24.2395 340.39 22.6389C341.053 21.0383 342.176 19.6703 343.616 18.7079C345.057 17.7454 346.75 17.2318 348.483 17.2319C349.633 17.2319 350.772 17.4585 351.835 17.8987C352.898 18.339 353.863 18.9842 354.677 19.7976C355.49 20.611 356.135 21.5767 356.575 22.6394C357.015 23.7022 357.242 24.8412 357.242 25.9915Z" stroke="#F95D44" stroke-width="1.38557" stroke-miterlimit="10"/>
<path d="M18.5211 169.025C18.5218 170.757 18.0087 172.451 17.0465 173.892C16.0844 175.333 14.7165 176.457 13.1159 177.12C11.5154 177.784 9.75395 177.957 8.05451 177.62C6.35507 177.282 4.79393 176.448 3.56856 175.223C2.34319 173.998 1.50863 172.437 1.17044 170.738C0.832246 169.039 1.00561 167.277 1.66861 165.676C2.3316 164.076 3.45445 162.707 4.89512 161.745C6.3358 160.782 8.02958 160.268 9.76224 160.269C12.0847 160.269 14.312 161.191 15.9545 162.833C17.597 164.475 18.5202 166.702 18.5211 169.025Z" stroke="#F95D44" stroke-width="1.38557" stroke-miterlimit="10"/>
<path d="M372.999 150.71C372.999 151.549 372.75 152.368 372.284 153.066C371.819 153.763 371.156 154.306 370.382 154.627C369.607 154.948 368.754 155.032 367.932 154.868C367.11 154.704 366.354 154.301 365.761 153.708C365.168 153.115 364.765 152.359 364.601 151.537C364.437 150.715 364.521 149.862 364.842 149.087C365.163 148.313 365.706 147.65 366.403 147.185C367.101 146.719 367.92 146.47 368.759 146.47C369.883 146.47 370.962 146.917 371.757 147.712C372.552 148.507 372.999 149.586 372.999 150.71Z" stroke="#F95D44" stroke-width="1.38557" stroke-miterlimit="10"/>
<path d="M49.1672 133.658C49.1671 134.496 48.9183 135.316 48.4524 136.013C47.9864 136.71 47.3243 137.253 46.5496 137.574C45.7749 137.895 44.9224 137.979 44.1 137.815C43.2776 137.652 42.5222 137.248 41.9293 136.655C41.3364 136.062 40.9326 135.307 40.769 134.484C40.6054 133.662 40.6893 132.809 41.0101 132.035C41.3309 131.26 41.8743 130.598 42.5714 130.132C43.2685 129.666 44.0882 129.417 44.9267 129.417C46.0513 129.417 47.1299 129.864 47.9252 130.659C48.7204 131.454 49.1672 132.533 49.1672 133.658Z" stroke="#F95D44" stroke-width="1.38557" stroke-miterlimit="10"/>
<path d="M191.721 263.66C244.02 263.66 286.417 260.377 286.417 256.328C286.417 252.278 244.02 248.995 191.721 248.995C139.422 248.995 97.0254 252.278 97.0254 256.328C97.0254 260.377 139.422 263.66 191.721 263.66Z" fill="#FEEFEC"/>
<path d="M179.962 1.23108L179.975 0H179.466L179.103 0.356092L179.962 1.23108ZM229.957 1.7673L230.834 0.907551L230.478 0.543838L229.968 0.538295L229.957 1.7673ZM144.232 36.2036L143.372 35.3252L143.008 35.6813L143.003 36.1905L144.232 36.2036ZM143.696 86.1979L142.465 86.1827L142.459 86.6919L142.815 87.0556L143.696 86.1979ZM178.668 121.93L177.79 122.79L178.146 123.154L178.655 123.159L178.668 121.93ZM228.662 122.467L228.649 123.696L229.157 123.701L229.521 123.345L228.662 122.467ZM264.395 87.4913L265.254 88.3698L265.618 88.0137L265.624 87.5045L264.395 87.4913ZM264.931 37.4971L266.16 37.5102L266.164 37.001L265.809 36.6373L264.931 37.4971ZM224.885 10.398L225.754 9.52928L225.394 9.16903H224.885V10.398ZM182.621 10.398V9.16903H182.112L181.752 9.52928L182.621 10.398ZM254.771 40.2828H256V39.7736L255.64 39.4133L254.771 40.2828ZM254.771 82.5469L255.64 83.4157L256 83.0554V82.5462L254.771 82.5469ZM224.885 112.432V113.661H225.394L225.754 113.301L224.885 112.432ZM182.621 112.432L181.752 113.301L182.113 113.661H182.622L182.621 112.432ZM152.736 82.5469H151.507V83.0561L151.867 83.4164L152.736 82.5469ZM152.736 40.2828L151.867 39.4133L151.507 39.7736V40.2828H152.736ZM179.949 2.45662L229.943 2.99284L229.969 0.534831L179.975 0L179.949 2.45662ZM145.092 37.0821L180.822 2.11023L179.103 0.353321L143.372 35.3252L145.092 37.0821ZM144.925 86.2111L145.461 36.2168L143.003 36.1905L142.465 86.1827L144.925 86.2111ZM179.546 121.069L144.574 85.3382L142.818 87.0577L177.79 122.788L179.546 121.069ZM228.676 121.236L178.681 120.699L178.654 123.157L228.649 123.694L228.676 121.236ZM263.532 86.6143L227.802 121.584L229.521 123.341L265.251 88.3684L263.532 86.6143ZM263.702 37.4846L263.167 87.4789L265.625 87.5052L266.16 37.5109L263.702 37.4846ZM229.077 2.62705L264.049 38.3568L265.806 36.6373L230.834 0.907551L229.077 2.62705ZM224.885 9.16903H182.621L182.622 11.627H224.885V9.16903ZM255.64 39.4133L225.755 9.52859L224.017 11.2668L253.902 41.1515L255.64 39.4133ZM256 82.5462V40.2828H253.542V82.5469L256 82.5462ZM225.755 113.301L255.64 83.4157L253.902 81.6775L224.017 111.563L225.755 113.301ZM182.622 113.661H224.885V111.203H182.622V113.661ZM151.867 83.4164L181.752 113.301L183.491 111.564L153.605 81.6796L151.867 83.4164ZM151.507 40.2828V82.5469L153.965 82.5476V40.2828H151.507ZM181.752 9.52859L151.867 39.4133L153.605 41.1515L183.491 11.2661L181.752 9.52859Z" fill="#F95D44"/>
<path d="M208.216 121.671V225.233H199.613V121.671" fill="#FEEFEC"/>
<path d="M208.216 121.671V225.233H199.613V121.671" stroke="#F95D44" stroke-width="1.38557"/>
<path d="M193.47 216.63H118.502V225.233H193.47V216.63Z" fill="#FEEFEC" stroke="#F95D44" stroke-width="1.38557"/>
<path d="M143.726 177.065L139.961 189.207H173.732L169.328 177.065H143.726Z" fill="#FEEFEC"/>
<path d="M137.497 197.984L131.449 215.494H181.722L175.873 196.673H137.497V197.984Z" fill="white"/>
<path d="M152.528 143.744H159.729L167.938 168.878H145.932L152.528 143.744Z" fill="white"/>
<path d="M145.552 169.601L144.374 169.242L143.889 170.83H145.552V169.601ZM153.421 143.793V142.564H152.51L152.245 143.434L153.421 143.793ZM167.285 169.601V170.83H168.948L168.463 169.242L167.285 169.601ZM159.416 143.793L160.594 143.434L160.326 142.564H159.416V143.793ZM139.557 189.265L138.379 188.906L137.894 190.494H139.557V189.265ZM143.304 176.975V175.748H142.391L142.126 176.619L143.304 176.975ZM173.281 189.265V190.494H174.944L174.459 188.906L173.281 189.265ZM169.534 176.975L170.711 176.616L170.446 175.746H169.536L169.534 176.975ZM137.308 196.639V195.41H136.398L136.132 196.28L137.308 196.639ZM131.407 215.995L130.229 215.636L129.744 217.224H131.407V215.995ZM175.529 196.639L176.707 196.28L176.441 195.41H175.531L175.529 196.639ZM181.43 215.995V217.224H183.093L182.608 215.636L181.43 215.995ZM146.728 169.96L154.596 144.152L152.245 143.434L144.376 169.242L146.728 169.96ZM167.285 168.372H145.552V170.83L167.285 170.83V168.372ZM158.241 144.152L166.109 169.96L168.461 169.242L160.592 143.434L158.241 144.152ZM159.418 142.564H153.421V145.022H159.416L159.418 142.564ZM140.732 189.624L144.479 177.334L142.128 176.616L138.381 188.906L140.732 189.624ZM173.28 188.036H139.557V190.494H173.281L173.28 188.036ZM168.358 177.334L172.105 189.624L174.456 188.906L170.709 176.616L168.358 177.334ZM143.304 178.204H169.534V175.748H143.304V178.204ZM136.132 196.28L130.231 215.636L132.582 216.354L138.484 196.998L136.132 196.28ZM175.528 195.41H137.308V197.868H175.528V195.41ZM182.605 215.639L176.704 196.283L174.353 197L180.254 216.357L182.605 215.639ZM131.408 217.227H181.432V214.766H131.407L131.408 217.227Z" fill="#F95D44"/>
<path d="M182.253 11.7124H224.198L253.755 41.2681V82.3302L224.198 110.916H182.253L154.018 82.3302V41.2687L182.253 11.7124Z" fill="#FEEFEC"/>
<path d="M202.064 85.5433C203.418 85.5433 204.515 84.4459 204.515 83.0922C204.515 81.7385 203.418 80.6411 202.064 80.6411C200.711 80.6411 199.613 81.7385 199.613 83.0922C199.613 84.4459 200.711 85.5433 202.064 85.5433Z" fill="#F95D44"/>
<path d="M202.065 42.6445H202.064C200.711 42.6445 199.613 43.7419 199.613 45.0956V73.2872C199.613 74.6409 200.711 75.7383 202.064 75.7383H202.065C203.419 75.7383 204.516 74.6409 204.516 73.2872V45.0956C204.516 43.7419 203.419 42.6445 202.065 42.6445Z" fill="#F95D44"/>
</svg>
